# xmcd CD database file
#
# Track frame offsets:
#	150
#	22885
#	39920
#	63727
#	92577
#	110906
#	125730
#	141100
#	163326
#	183962
#	212276
#	246702
#	263266
#
# Disc length: 3757 seconds
#
# Revision: 2
# Processed by: cddbd v1.5.2PL0 Copyright (c) Steve Scherf et al.
# Submitted via: CDex 1.51
#
DISCID=b70eab0d
DTITLE=Buddy Guy - Bring 'Em In
DYEAR=2005
DGENRE=Blues
TTITLE0=Now You're Gone
TTITLE1=Ninety Nine And One Half
TTITLE2=What Kind Of Woman Is This
TTITLE3=Somebody's Sleeping In My Bed
TTITLE4=I Put A Spell On You (featuring Carlos Santana)
TTITLE5=On A Saturday Night
TTITLE6=Ain't No Sunshine (featuring Tracy Chapman)
TTITLE7=I've Got Dreams To Remember (featuring John Mayer)
TTITLE8=Lay Lady Lay (featuring Anthony Hamilton and Robrt Randolph)
TTITLE9=Cheaper To Keep Her - Blues In The Night
TTITLE10=Cut You Loose
TTITLE11=The Price You Gotta Pay (featuring Keith Richards)
TTITLE12=Do Your Thing
EXTD=YEAR: 2005
EXTT0=
EXTT1=
EXTT2=
EXTT3=
EXTT4=
EXTT5=
EXTT6=
EXTT7=
EXTT8=
EXTT9=
EXTT10=
EXTT11=
EXTT12=
PLAYORDER=
